<svg id="visual" viewBox="0 0 900 600" width="900" height="600" xmlns="http://www.w3.org/2000/svg" xmlns:xlink="http://www.w3.org/1999/xlink" version="1.1"><path d="M0 43L69 43L69 61L138 61L138 73L208 73L208 43L277 43L277 73L346 73L346 49L415 49L415 67L485 67L485 73L554 73L554 61L623 61L623 49L692 49L692 67L762 67L762 67L831 67L831 25L900 25L900 49L900 0L900 0L831 0L831 0L762 0L762 0L692 0L692 0L623 0L623 0L554 0L554 0L485 0L485 0L415 0L415 0L346 0L346 0L277 0L277 0L208 0L208 0L138 0L138 0L69 0L69 0L0 0Z" fill="#eb4bd0"></path><path d="M0 121L69 121L69 139L138 139L138 157L208 157L208 127L277 127L277 133L346 133L346 91L415 91L415 115L485 115L485 115L554 115L554 103L623 103L623 121L692 121L692 151L762 151L762 115L831 115L831 73L900 73L900 121L900 47L900 23L831 23L831 65L762 65L762 65L692 65L692 47L623 47L623 59L554 59L554 71L485 71L485 65L415 65L415 47L346 47L346 71L277 71L277 41L208 41L208 71L138 71L138 59L69 59L69 41L0 41Z" fill="#ed3aaf"></path><path d="M0 157L69 157L69 175L138 175L138 181L208 181L208 151L277 151L277 169L346 169L346 127L415 127L415 145L485 145L485 157L554 157L554 133L623 133L623 175L692 175L692 205L762 205L762 139L831 139L831 133L900 133L900 181L900 119L900 71L831 71L831 113L762 113L762 149L692 149L692 119L623 119L623 101L554 101L554 113L485 113L485 113L415 113L415 89L346 89L346 131L277 131L277 125L208 125L208 155L138 155L138 137L69 137L69 119L0 119Z" fill="#e92c91"></path><path d="M0 265L69 265L69 295L138 295L138 229L208 229L208 265L277 265L277 217L346 217L346 211L415 211L415 289L485 289L485 211L554 211L554 253L623 253L623 235L692 235L692 271L762 271L762 229L831 229L831 205L900 205L900 277L900 179L900 131L831 131L831 137L762 137L762 203L692 203L692 173L623 173L623 131L554 131L554 155L485 155L485 143L415 143L415 125L346 125L346 167L277 167L277 149L208 149L208 179L138 179L138 173L69 173L69 155L0 155Z" fill="#e02574"></path><path d="M0 421L69 421L69 475L138 475L138 457L208 457L208 421L277 421L277 355L346 355L346 421L415 421L415 475L485 475L485 385L554 385L554 415L623 415L623 433L692 433L692 379L762 379L762 403L831 403L831 295L900 295L900 391L900 275L900 203L831 203L831 227L762 227L762 269L692 269L692 233L623 233L623 251L554 251L554 209L485 209L485 287L415 287L415 209L346 209L346 215L277 215L277 263L208 263L208 227L138 227L138 293L69 293L69 263L0 263Z" fill="#d3255a"></path><path d="M0 523L69 523L69 559L138 559L138 535L208 535L208 499L277 499L277 565L346 565L346 499L415 499L415 565L485 565L485 517L554 517L554 565L623 565L623 517L692 517L692 517L762 517L762 511L831 511L831 493L900 493L900 511L900 389L900 293L831 293L831 401L762 401L762 377L692 377L692 431L623 431L623 413L554 413L554 383L485 383L485 473L415 473L415 419L346 419L346 353L277 353L277 419L208 419L208 455L138 455L138 473L69 473L69 419L0 419Z" fill="#c42943"></path><path d="M0 601L69 601L69 601L138 601L138 601L208 601L208 601L277 601L277 601L346 601L346 601L415 601L415 601L485 601L485 601L554 601L554 601L623 601L623 601L692 601L692 601L762 601L762 601L831 601L831 601L900 601L900 601L900 509L900 491L831 491L831 509L762 509L762 515L692 515L692 515L623 515L623 563L554 563L554 515L485 515L485 563L415 563L415 497L346 497L346 563L277 563L277 497L208 497L208 533L138 533L138 557L69 557L69 521L0 521Z" fill="#b22e2e"></path></svg>