<svg id="visual" viewBox="0 0 900 600" width="900" height="600" xmlns="http://www.w3.org/2000/svg" xmlns:xlink="http://www.w3.org/1999/xlink" version="1.1"><path d="M0 43L69 43L69 67L138 67L138 61L208 61L208 55L277 55L277 61L346 61L346 55L415 55L415 25L485 25L485 37L554 37L554 25L623 25L623 55L692 55L692 55L762 55L762 37L831 37L831 61L900 61L900 31L900 0L900 0L831 0L831 0L762 0L762 0L692 0L692 0L623 0L623 0L554 0L554 0L485 0L485 0L415 0L415 0L346 0L346 0L277 0L277 0L208 0L208 0L138 0L138 0L69 0L69 0L0 0Z" fill="#963e00"></path><path d="M0 127L69 127L69 151L138 151L138 127L208 127L208 91L277 91L277 109L346 109L346 103L415 103L415 103L485 103L485 97L554 97L554 109L623 109L623 85L692 85L692 133L762 133L762 121L831 121L831 97L900 97L900 121L900 29L900 59L831 59L831 35L762 35L762 53L692 53L692 53L623 53L623 23L554 23L554 35L485 35L485 23L415 23L415 53L346 53L346 59L277 59L277 53L208 53L208 59L138 59L138 65L69 65L69 41L0 41Z" fill="#9c4e00"></path><path d="M0 223L69 223L69 217L138 217L138 217L208 217L208 181L277 181L277 211L346 211L346 175L415 175L415 175L485 175L485 151L554 151L554 187L623 187L623 181L692 181L692 229L762 229L762 169L831 169L831 187L900 187L900 157L900 119L900 95L831 95L831 119L762 119L762 131L692 131L692 83L623 83L623 107L554 107L554 95L485 95L485 101L415 101L415 101L346 101L346 107L277 107L277 89L208 89L208 125L138 125L138 149L69 149L69 125L0 125Z" fill="#a15e00"></path><path d="M0 385L69 385L69 427L138 427L138 289L208 289L208 289L277 289L277 337L346 337L346 289L415 289L415 343L485 343L485 325L554 325L554 313L623 313L623 421L692 421L692 343L762 343L762 337L831 337L831 313L900 313L900 259L900 155L900 185L831 185L831 167L762 167L762 227L692 227L692 179L623 179L623 185L554 185L554 149L485 149L485 173L415 173L415 173L346 173L346 209L277 209L277 179L208 179L208 215L138 215L138 215L69 215L69 221L0 221Z" fill="#a56d00"></path><path d="M0 421L69 421L69 475L138 475L138 391L208 391L208 355L277 355L277 403L346 403L346 403L415 403L415 463L485 463L485 397L554 397L554 385L623 385L623 493L692 493L692 439L762 439L762 475L831 475L831 397L900 397L900 355L900 257L900 311L831 311L831 335L762 335L762 341L692 341L692 419L623 419L623 311L554 311L554 323L485 323L485 341L415 341L415 287L346 287L346 335L277 335L277 287L208 287L208 287L138 287L138 425L69 425L69 383L0 383Z" fill="#a87c00"></path><path d="M0 469L69 469L69 511L138 511L138 457L208 457L208 385L277 385L277 445L346 445L346 451L415 451L415 541L485 541L485 451L554 451L554 433L623 433L623 523L692 523L692 493L762 493L762 523L831 523L831 439L900 439L900 409L900 353L900 395L831 395L831 473L762 473L762 437L692 437L692 491L623 491L623 383L554 383L554 395L485 395L485 461L415 461L415 401L346 401L346 401L277 401L277 353L208 353L208 389L138 389L138 473L69 473L69 419L0 419Z" fill="#a98c00"></path><path d="M0 601L69 601L69 601L138 601L138 601L208 601L208 601L277 601L277 601L346 601L346 601L415 601L415 601L485 601L485 601L554 601L554 601L623 601L623 601L692 601L692 601L762 601L762 601L831 601L831 601L900 601L900 601L900 407L900 437L831 437L831 521L762 521L762 491L692 491L692 521L623 521L623 431L554 431L554 449L485 449L485 539L415 539L415 449L346 449L346 443L277 443L277 383L208 383L208 455L138 455L138 509L69 509L69 467L0 467Z" fill="#a89c0a"></path></svg>