<svg id="visual" viewBox="0 0 900 600" width="900" height="600" xmlns="http://www.w3.org/2000/svg" xmlns:xlink="http://www.w3.org/1999/xlink" version="1.1"><path d="M0 43L82 43L82 49L164 49L164 37L245 37L245 31L327 31L327 19L409 19L409 49L491 49L491 19L573 19L573 49L655 49L655 67L736 67L736 49L818 49L818 25L900 25L900 61L900 0L900 0L818 0L818 0L736 0L736 0L655 0L655 0L573 0L573 0L491 0L491 0L409 0L409 0L327 0L327 0L245 0L245 0L164 0L164 0L82 0L82 0L0 0Z" fill="#01701e"></path><path d="M0 79L82 79L82 85L164 85L164 67L245 67L245 67L327 67L327 67L409 67L409 85L491 85L491 61L573 61L573 91L655 91L655 91L736 91L736 67L818 67L818 73L900 73L900 115L900 59L900 23L818 23L818 47L736 47L736 65L655 65L655 47L573 47L573 17L491 17L491 47L409 47L409 17L327 17L327 29L245 29L245 35L164 35L164 47L82 47L82 41L0 41Z" fill="#087e2b"></path><path d="M0 133L82 133L82 115L164 115L164 145L245 145L245 133L327 133L327 103L409 103L409 109L491 109L491 133L573 133L573 127L655 127L655 133L736 133L736 103L818 103L818 103L900 103L900 151L900 113L900 71L818 71L818 65L736 65L736 89L655 89L655 89L573 89L573 59L491 59L491 83L409 83L409 65L327 65L327 65L245 65L245 65L164 65L164 83L82 83L82 77L0 77Z" fill="#108c37"></path><path d="M0 217L82 217L82 301L164 301L164 247L245 247L245 241L327 241L327 187L409 187L409 283L491 283L491 265L573 265L573 181L655 181L655 223L736 223L736 211L818 211L818 241L900 241L900 229L900 149L900 101L818 101L818 101L736 101L736 131L655 131L655 125L573 125L573 131L491 131L491 107L409 107L409 101L327 101L327 131L245 131L245 143L164 143L164 113L82 113L82 131L0 131Z" fill="#169a44"></path><path d="M0 265L82 265L82 325L164 325L164 295L245 295L245 271L327 271L327 253L409 253L409 343L491 343L491 307L573 307L573 247L655 247L655 253L736 253L736 265L818 265L818 313L900 313L900 271L900 227L900 239L818 239L818 209L736 209L736 221L655 221L655 179L573 179L573 263L491 263L491 281L409 281L409 185L327 185L327 239L245 239L245 245L164 245L164 299L82 299L82 215L0 215Z" fill="#1aa852"></path><path d="M0 373L82 373L82 445L164 445L164 355L245 355L245 409L327 409L327 301L409 301L409 427L491 427L491 403L573 403L573 349L655 349L655 367L736 367L736 379L818 379L818 439L900 439L900 379L900 269L900 311L818 311L818 263L736 263L736 251L655 251L655 245L573 245L573 305L491 305L491 341L409 341L409 251L327 251L327 269L245 269L245 293L164 293L164 323L82 323L82 263L0 263Z" fill="#1eb760"></path><path d="M0 535L82 535L82 529L164 529L164 565L245 565L245 547L327 547L327 511L409 511L409 559L491 559L491 553L573 553L573 511L655 511L655 499L736 499L736 499L818 499L818 565L900 565L900 571L900 377L900 437L818 437L818 377L736 377L736 365L655 365L655 347L573 347L573 401L491 401L491 425L409 425L409 299L327 299L327 407L245 407L245 353L164 353L164 443L82 443L82 371L0 371Z" fill="#22c76e"></path><path d="M0 601L82 601L82 601L164 601L164 601L245 601L245 601L327 601L327 601L409 601L409 601L491 601L491 601L573 601L573 601L655 601L655 601L736 601L736 601L818 601L818 601L900 601L900 601L900 569L900 563L818 563L818 497L736 497L736 497L655 497L655 509L573 509L573 551L491 551L491 557L409 557L409 509L327 509L327 545L245 545L245 563L164 563L164 527L82 527L82 533L0 533Z" fill="#24d67d"></path></svg>