<svg id="visual" viewBox="0 0 900 600" width="900" height="600" xmlns="http://www.w3.org/2000/svg" xmlns:xlink="http://www.w3.org/1999/xlink" version="1.1"><path d="M0 109L69 109L69 139L138 139L138 133L208 133L208 115L277 115L277 151L346 151L346 97L415 97L415 115L485 115L485 139L554 139L554 85L623 85L623 145L692 145L692 157L762 157L762 121L831 121L831 115L900 115L900 109L900 0L900 0L831 0L831 0L762 0L762 0L692 0L692 0L623 0L623 0L554 0L554 0L485 0L485 0L415 0L415 0L346 0L346 0L277 0L277 0L208 0L208 0L138 0L138 0L69 0L69 0L0 0Z" fill="#a54beb"></path><path d="M0 235L69 235L69 259L138 259L138 259L208 259L208 205L277 205L277 259L346 259L346 205L415 205L415 217L485 217L485 199L554 199L554 145L623 145L623 205L692 205L692 253L762 253L762 199L831 199L831 217L900 217L900 199L900 107L900 113L831 113L831 119L762 119L762 155L692 155L692 143L623 143L623 83L554 83L554 137L485 137L485 113L415 113L415 95L346 95L346 149L277 149L277 113L208 113L208 131L138 131L138 137L69 137L69 107L0 107Z" fill="#8f44dc"></path><path d="M0 301L69 301L69 289L138 289L138 319L208 319L208 253L277 253L277 283L346 283L346 259L415 259L415 253L485 253L485 253L554 253L554 181L623 181L623 247L692 247L692 277L762 277L762 253L831 253L831 247L900 247L900 229L900 197L900 215L831 215L831 197L762 197L762 251L692 251L692 203L623 203L623 143L554 143L554 197L485 197L485 215L415 215L415 203L346 203L346 257L277 257L277 203L208 203L208 257L138 257L138 257L69 257L69 233L0 233Z" fill="#793ccd"></path><path d="M0 463L69 463L69 403L138 403L138 451L208 451L208 397L277 397L277 421L346 421L346 427L415 427L415 403L485 403L485 391L554 391L554 445L623 445L623 373L692 373L692 397L762 397L762 385L831 385L831 433L900 433L900 397L900 227L900 245L831 245L831 251L762 251L762 275L692 275L692 245L623 245L623 179L554 179L554 251L485 251L485 251L415 251L415 257L346 257L346 281L277 281L277 251L208 251L208 317L138 317L138 287L69 287L69 299L0 299Z" fill="#6335be"></path><path d="M0 499L69 499L69 463L138 463L138 517L208 517L208 499L277 499L277 469L346 469L346 523L415 523L415 475L485 475L485 475L554 475L554 505L623 505L623 463L692 463L692 493L762 493L762 487L831 487L831 481L900 481L900 493L900 395L900 431L831 431L831 383L762 383L762 395L692 395L692 371L623 371L623 443L554 443L554 389L485 389L485 401L415 401L415 425L346 425L346 419L277 419L277 395L208 395L208 449L138 449L138 401L69 401L69 461L0 461Z" fill="#4d2eaf"></path><path d="M0 523L69 523L69 541L138 541L138 559L208 559L208 529L277 529L277 541L346 541L346 571L415 571L415 541L485 541L485 535L554 535L554 529L623 529L623 535L692 535L692 571L762 571L762 517L831 517L831 547L900 547L900 517L900 491L900 479L831 479L831 485L762 485L762 491L692 491L692 461L623 461L623 503L554 503L554 473L485 473L485 473L415 473L415 521L346 521L346 467L277 467L277 497L208 497L208 515L138 515L138 461L69 461L69 497L0 497Z" fill="#35279f"></path><path d="M0 601L69 601L69 601L138 601L138 601L208 601L208 601L277 601L277 601L346 601L346 601L415 601L415 601L485 601L485 601L554 601L554 601L623 601L623 601L692 601L692 601L762 601L762 601L831 601L831 601L900 601L900 601L900 515L900 545L831 545L831 515L762 515L762 569L692 569L692 533L623 533L623 527L554 527L554 533L485 533L485 539L415 539L415 569L346 569L346 539L277 539L277 527L208 527L208 557L138 557L138 539L69 539L69 521L0 521Z" fill="#172090"></path></svg>