<svg id="visual" viewBox="0 0 900 600" width="900" height="600" xmlns="http://www.w3.org/2000/svg" xmlns:xlink="http://www.w3.org/1999/xlink" version="1.1"><g stroke-width="1" stroke-linejoin="bevel"><path d="M479 283L495 215L383 223Z" fill="#02661f" stroke="#02661f"></path><path d="M383 223L362 336L479 283Z" fill="#0da13a" stroke="#0da13a"></path><path d="M479 283L579 194L495 215Z" fill="#004f15" stroke="#004f15"></path><path d="M495 215L431 84L383 223Z" fill="#08892f" stroke="#08892f"></path><path d="M323 119L295 221L383 223Z" fill="#015a1a" stroke="#015a1a"></path><path d="M383 223L295 221L362 336Z" fill="#02661f" stroke="#02661f"></path><path d="M537 106L431 84L495 215Z" fill="#015a1a" stroke="#015a1a"></path><path d="M579 194L537 106L495 215Z" fill="#015a1a" stroke="#015a1a"></path><path d="M431 84L323 119L383 223Z" fill="#004f15" stroke="#004f15"></path><path d="M282 425L373 405L362 336Z" fill="#015a1a" stroke="#015a1a"></path><path d="M362 336L373 405L479 283Z" fill="#015a1a" stroke="#015a1a"></path><path d="M479 283L621 335L579 194Z" fill="#12c74c" stroke="#12c74c"></path><path d="M221 215L264 287L295 221Z" fill="#0a9535" stroke="#0a9535"></path><path d="M295 221L264 287L362 336Z" fill="#0fae40" stroke="#0fae40"></path><path d="M579 194L565 85L537 106Z" fill="#10ba46" stroke="#10ba46"></path><path d="M537 106L488 0L431 84Z" fill="#12c74c" stroke="#12c74c"></path><path d="M373 405L489 432L479 283Z" fill="#067d2a" stroke="#067d2a"></path><path d="M489 432L621 335L479 283Z" fill="#0da13a" stroke="#0da13a"></path><path d="M579 194L734 138L565 85Z" fill="#0fae40" stroke="#0fae40"></path><path d="M323 119L221 215L295 221Z" fill="#08892f" stroke="#08892f"></path><path d="M621 335L677 234L579 194Z" fill="#08892f" stroke="#08892f"></path><path d="M489 432L617 402L621 335Z" fill="#12c74c" stroke="#12c74c"></path><path d="M621 335L694 312L677 234Z" fill="#0a9535" stroke="#0a9535"></path><path d="M431 84L400 0L323 119Z" fill="#015a1a" stroke="#015a1a"></path><path d="M323 119L198 86L221 215Z" fill="#12c74c" stroke="#12c74c"></path><path d="M488 0L400 0L431 84Z" fill="#12c74c" stroke="#12c74c"></path><path d="M565 85L488 0L537 106Z" fill="#0da13a" stroke="#0da13a"></path><path d="M264 287L282 425L362 336Z" fill="#0da13a" stroke="#0da13a"></path><path d="M373 405L473 489L489 432Z" fill="#10ba46" stroke="#10ba46"></path><path d="M189 414L282 425L264 287Z" fill="#0fae40" stroke="#0fae40"></path><path d="M434 514L473 489L373 405Z" fill="#02661f" stroke="#02661f"></path><path d="M489 432L621 515L617 402Z" fill="#004f15" stroke="#004f15"></path><path d="M617 402L694 312L621 335Z" fill="#015a1a" stroke="#015a1a"></path><path d="M221 215L173 293L264 287Z" fill="#047124" stroke="#047124"></path><path d="M339 522L434 514L373 405Z" fill="#0fae40" stroke="#0fae40"></path><path d="M473 489L621 515L489 432Z" fill="#0fae40" stroke="#0fae40"></path><path d="M400 0L299 0L323 119Z" fill="#08892f" stroke="#08892f"></path><path d="M221 215L135 239L173 293Z" fill="#10ba46" stroke="#10ba46"></path><path d="M299 0L198 86L323 119Z" fill="#0a9535" stroke="#0a9535"></path><path d="M225 536L339 522L282 425Z" fill="#0da13a" stroke="#0da13a"></path><path d="M282 425L339 522L373 405Z" fill="#10ba46" stroke="#10ba46"></path><path d="M119 126L135 239L221 215Z" fill="#015a1a" stroke="#015a1a"></path><path d="M86 379L189 414L173 293Z" fill="#047124" stroke="#047124"></path><path d="M173 293L189 414L264 287Z" fill="#0fae40" stroke="#0fae40"></path><path d="M734 138L638 0L565 85Z" fill="#0da13a" stroke="#0da13a"></path><path d="M565 85L638 0L488 0Z" fill="#067d2a" stroke="#067d2a"></path><path d="M734 138L579 194L677 234Z" fill="#004f15" stroke="#004f15"></path><path d="M767 167L734 138L677 234Z" fill="#004f15" stroke="#004f15"></path><path d="M617 402L717 437L694 312Z" fill="#12c74c" stroke="#12c74c"></path><path d="M497 600L621 515L473 489Z" fill="#12c74c" stroke="#12c74c"></path><path d="M497 600L473 489L434 514Z" fill="#047124" stroke="#047124"></path><path d="M299 0L206 0L198 86Z" fill="#0da13a" stroke="#0da13a"></path><path d="M198 86L119 126L221 215Z" fill="#0fae40" stroke="#0fae40"></path><path d="M766 339L677 234L694 312Z" fill="#12c74c" stroke="#12c74c"></path><path d="M766 339L767 167L677 234Z" fill="#10ba46" stroke="#10ba46"></path><path d="M734 138L710 0L638 0Z" fill="#08892f" stroke="#08892f"></path><path d="M132 0L119 126L198 86Z" fill="#0da13a" stroke="#0da13a"></path><path d="M707 496L717 437L617 402Z" fill="#0fae40" stroke="#0fae40"></path><path d="M717 437L766 339L694 312Z" fill="#015a1a" stroke="#015a1a"></path><path d="M119 126L85 264L135 239Z" fill="#02661f" stroke="#02661f"></path><path d="M135 239L85 264L173 293Z" fill="#0a9535" stroke="#0a9535"></path><path d="M794 80L710 0L734 138Z" fill="#067d2a" stroke="#067d2a"></path><path d="M319 600L398 600L339 522Z" fill="#12c74c" stroke="#12c74c"></path><path d="M339 522L398 600L434 514Z" fill="#047124" stroke="#047124"></path><path d="M398 600L497 600L434 514Z" fill="#08892f" stroke="#08892f"></path><path d="M73 515L225 536L189 414Z" fill="#02661f" stroke="#02661f"></path><path d="M189 414L225 536L282 425Z" fill="#0a9535" stroke="#0a9535"></path><path d="M621 515L707 496L617 402Z" fill="#0da13a" stroke="#0da13a"></path><path d="M717 437L798 365L766 339Z" fill="#0fae40" stroke="#0fae40"></path><path d="M676 600L707 496L621 515Z" fill="#0da13a" stroke="#0da13a"></path><path d="M769 494L798 365L717 437Z" fill="#0da13a" stroke="#0da13a"></path><path d="M900 325L900 176L767 167Z" fill="#004f15" stroke="#004f15"></path><path d="M85 264L86 379L173 293Z" fill="#0a9535" stroke="#0a9535"></path><path d="M225 536L319 600L339 522Z" fill="#0da13a" stroke="#0da13a"></path><path d="M767 167L794 80L734 138Z" fill="#02661f" stroke="#02661f"></path><path d="M900 176L794 80L767 167Z" fill="#0fae40" stroke="#0fae40"></path><path d="M206 0L132 0L198 86Z" fill="#08892f" stroke="#08892f"></path><path d="M0 161L0 268L85 264Z" fill="#0da13a" stroke="#0da13a"></path><path d="M497 600L632 600L621 515Z" fill="#0a9535" stroke="#0a9535"></path><path d="M770 600L769 494L707 496Z" fill="#004f15" stroke="#004f15"></path><path d="M707 496L769 494L717 437Z" fill="#0da13a" stroke="#0da13a"></path><path d="M136 600L228 600L225 536Z" fill="#047124" stroke="#047124"></path><path d="M225 536L228 600L319 600Z" fill="#10ba46" stroke="#10ba46"></path><path d="M632 600L676 600L621 515Z" fill="#10ba46" stroke="#10ba46"></path><path d="M85 264L0 268L86 379Z" fill="#0fae40" stroke="#0fae40"></path><path d="M86 379L73 515L189 414Z" fill="#015a1a" stroke="#015a1a"></path><path d="M0 161L85 264L119 126Z" fill="#02661f" stroke="#02661f"></path><path d="M0 137L0 161L119 126Z" fill="#047124" stroke="#047124"></path><path d="M0 0L0 137L119 126Z" fill="#004f15" stroke="#004f15"></path><path d="M900 85L832 0L794 80Z" fill="#0fae40" stroke="#0fae40"></path><path d="M794 80L832 0L710 0Z" fill="#10ba46" stroke="#10ba46"></path><path d="M0 422L73 515L86 379Z" fill="#0a9535" stroke="#0a9535"></path><path d="M900 325L766 339L798 365Z" fill="#004f15" stroke="#004f15"></path><path d="M900 325L767 167L766 339Z" fill="#015a1a" stroke="#015a1a"></path><path d="M900 425L900 325L798 365Z" fill="#047124" stroke="#047124"></path><path d="M73 515L136 600L225 536Z" fill="#0fae40" stroke="#0fae40"></path><path d="M0 268L0 422L86 379Z" fill="#0da13a" stroke="#0da13a"></path><path d="M73 515L0 600L136 600Z" fill="#10ba46" stroke="#10ba46"></path><path d="M900 176L900 85L794 80Z" fill="#08892f" stroke="#08892f"></path><path d="M676 600L770 600L707 496Z" fill="#10ba46" stroke="#10ba46"></path><path d="M769 494L900 425L798 365Z" fill="#004f15" stroke="#004f15"></path><path d="M900 518L900 425L769 494Z" fill="#047124" stroke="#047124"></path><path d="M132 0L0 0L119 126Z" fill="#12c74c" stroke="#12c74c"></path><path d="M0 422L0 491L73 515Z" fill="#004f15" stroke="#004f15"></path><path d="M900 85L900 0L832 0Z" fill="#0da13a" stroke="#0da13a"></path><path d="M770 600L900 518L769 494Z" fill="#047124" stroke="#047124"></path><path d="M0 491L0 600L73 515Z" fill="#0a9535" stroke="#0a9535"></path><path d="M770 600L900 600L900 518Z" fill="#12c74c" stroke="#12c74c"></path></g></svg>