<svg id="visual" viewBox="0 0 900 600" width="900" height="600" xmlns="http://www.w3.org/2000/svg" xmlns:xlink="http://www.w3.org/1999/xlink" version="1.1"><path d="M0 151L75 151L75 103L150 103L150 229L225 229L225 127L300 127L300 103L375 103L375 109L450 109L450 79L525 79L525 163L600 163L600 127L675 127L675 169L750 169L750 115L825 115L825 157L900 157L900 127L900 0L900 0L825 0L825 0L750 0L750 0L675 0L675 0L600 0L600 0L525 0L525 0L450 0L450 0L375 0L375 0L300 0L300 0L225 0L225 0L150 0L150 0L75 0L75 0L0 0Z" fill="#00b3d8"></path><path d="M0 247L75 247L75 235L150 235L150 343L225 343L225 313L300 313L300 247L375 247L375 259L450 259L450 199L525 199L525 235L600 235L600 205L675 205L675 229L750 229L750 241L825 241L825 253L900 253L900 241L900 125L900 155L825 155L825 113L750 113L750 167L675 167L675 125L600 125L600 161L525 161L525 77L450 77L450 107L375 107L375 101L300 101L300 125L225 125L225 227L150 227L150 101L75 101L75 149L0 149Z" fill="#00a0cf"></path><path d="M0 265L75 265L75 247L150 247L150 367L225 367L225 337L300 337L300 283L375 283L375 307L450 307L450 247L525 247L525 277L600 277L600 241L675 241L675 271L750 271L750 283L825 283L825 283L900 283L900 265L900 239L900 251L825 251L825 239L750 239L750 227L675 227L675 203L600 203L600 233L525 233L525 197L450 197L450 257L375 257L375 245L300 245L300 311L225 311L225 341L150 341L150 233L75 233L75 245L0 245Z" fill="#008dc5"></path><path d="M0 319L75 319L75 265L150 265L150 385L225 385L225 361L300 361L300 325L375 325L375 337L450 337L450 283L525 283L525 295L600 295L600 259L675 259L675 295L750 295L750 331L825 331L825 301L900 301L900 301L900 263L900 281L825 281L825 281L750 281L750 269L675 269L675 239L600 239L600 275L525 275L525 245L450 245L450 305L375 305L375 281L300 281L300 335L225 335L225 365L150 365L150 245L75 245L75 263L0 263Z" fill="#007ab9"></path><path d="M0 361L75 361L75 325L150 325L150 409L225 409L225 379L300 379L300 367L375 367L375 361L450 361L450 307L525 307L525 313L600 313L600 277L675 277L675 349L750 349L750 367L825 367L825 325L900 325L900 325L900 299L900 299L825 299L825 329L750 329L750 293L675 293L675 257L600 257L600 293L525 293L525 281L450 281L450 335L375 335L375 323L300 323L300 359L225 359L225 383L150 383L150 263L75 263L75 317L0 317Z" fill="#0067ab"></path><path d="M0 385L75 385L75 385L150 385L150 445L225 445L225 433L300 433L300 397L375 397L375 415L450 415L450 337L525 337L525 379L600 379L600 337L675 337L675 379L750 379L750 427L825 427L825 373L900 373L900 385L900 323L900 323L825 323L825 365L750 365L750 347L675 347L675 275L600 275L600 311L525 311L525 305L450 305L450 359L375 359L375 365L300 365L300 377L225 377L225 407L150 407L150 323L75 323L75 359L0 359Z" fill="#00539b"></path><path d="M0 427L75 427L75 451L150 451L150 475L225 475L225 487L300 487L300 445L375 445L375 451L450 451L450 415L525 415L525 463L600 463L600 409L675 409L675 433L750 433L750 451L825 451L825 439L900 439L900 415L900 383L900 371L825 371L825 425L750 425L750 377L675 377L675 335L600 335L600 377L525 377L525 335L450 335L450 413L375 413L375 395L300 395L300 431L225 431L225 443L150 443L150 383L75 383L75 383L0 383Z" fill="#00408a"></path><path d="M0 475L75 475L75 481L150 481L150 529L225 529L225 547L300 547L300 499L375 499L375 505L450 505L450 481L525 481L525 523L600 523L600 475L675 475L675 499L750 499L750 481L825 481L825 463L900 463L900 469L900 413L900 437L825 437L825 449L750 449L750 431L675 431L675 407L600 407L600 461L525 461L525 413L450 413L450 449L375 449L375 443L300 443L300 485L225 485L225 473L150 473L150 449L75 449L75 425L0 425Z" fill="#002d79"></path><path d="M0 583L75 583L75 571L150 571L150 583L225 583L225 589L300 589L300 583L375 583L375 589L450 589L450 583L525 583L525 577L600 577L600 577L675 577L675 565L750 565L750 571L825 571L825 559L900 559L900 571L900 467L900 461L825 461L825 479L750 479L750 497L675 497L675 473L600 473L600 521L525 521L525 479L450 479L450 503L375 503L375 497L300 497L300 545L225 545L225 527L150 527L150 479L75 479L75 473L0 473Z" fill="#001a66"></path><path d="M0 601L75 601L75 601L150 601L150 601L225 601L225 601L300 601L300 601L375 601L375 601L450 601L450 601L525 601L525 601L600 601L600 601L675 601L675 601L750 601L750 601L825 601L825 601L900 601L900 601L900 569L900 557L825 557L825 569L750 569L750 563L675 563L675 575L600 575L600 575L525 575L525 581L450 581L450 587L375 587L375 581L300 581L300 587L225 587L225 581L150 581L150 569L75 569L75 581L0 581Z" fill="#000453"></path></svg>