<svg id="visual" viewBox="0 0 1920 600" width="1920" height="600" xmlns="http://www.w3.org/2000/svg" xmlns:xlink="http://www.w3.org/1999/xlink" version="1.1"><rect x="0" y="0" width="1920" height="600" fill="#f5f5f5"></rect><path d="M0 150L274 174L549 137L823 175L1097 230L1371 220L1646 175L1920 123L1920 601L1646 601L1371 601L1097 601L823 601L549 601L274 601L0 601Z" fill="#cf0255"></path><path d="M0 208L274 281L549 226L823 217L1097 249L1371 283L1646 256L1920 225L1920 601L1646 601L1371 601L1097 601L823 601L549 601L274 601L0 601Z" fill="#ea3e40"></path><path d="M0 310L274 349L549 295L823 347L1097 332L1371 294L1646 272L1920 286L1920 601L1646 601L1371 601L1097 601L823 601L549 601L274 601L0 601Z" fill="#f86c24"></path><path d="M0 412L274 404L549 347L823 358L1097 418L1371 378L1646 392L1920 340L1920 601L1646 601L1371 601L1097 601L823 601L549 601L274 601L0 601Z" fill="#f99900"></path><path d="M0 450L274 457L549 478L823 466L1097 450L1371 444L1646 423L1920 449L1920 601L1646 601L1371 601L1097 601L823 601L549 601L274 601L0 601Z" fill="#ecc500"></path><path d="M0 504L274 532L549 555L823 536L1097 524L1371 551L1646 510L1920 544L1920 601L1646 601L1371 601L1097 601L823 601L549 601L274 601L0 601Z" fill="#d1ef15"></path></svg>