<svg id="visual" viewBox="0 0 1920 600" width="1920" height="600" xmlns="http://www.w3.org/2000/svg" xmlns:xlink="http://www.w3.org/1999/xlink" version="1.1">
    <rect x="0" y="0" width="1920" height="600" fill="#efaaf0"></rect>
    <path d="M0 150L120 106L240 164L360 88L480 122L600 44L720 129L840 113L960 51L1080 108L1200 170L1320 158L1440 162L1560 38L1680 115L1800 150L1920 154L1920 601L1800 601L1680 601L1560 601L1440 601L1320 601L1200 601L1080 601L960 601L840 601L720 601L600 601L480 601L360 601L240 601L120 601L0 601Z" fill="#dd8cad"></path>
    <path d="M0 170L120 190L240 116L360 147L480 142L600 114L720 96L840 155L960 178L1080 128L1200 187L1320 93L1440 152L1560 186L1680 86L1800 153L1920 182L1920 601L1800 601L1680 601L1560 601L1440 601L1320 601L1200 601L1080 601L960 601L840 601L720 601L600 601L480 601L360 601L240 601L120 601L0 601Z" fill="#e893a6"></path>
    <path d="M0 179L120 170L240 202L360 142L480 218L600 167L720 219L840 214L960 182L1080 259L1200 141L1320 232L1440 156L1560 236L1680 238L1800 186L1920 183L1920 601L1800 601L1680 601L1560 601L1440 601L1320 601L1200 601L1080 601L960 601L840 601L720 601L600 601L480 601L360 601L240 601L120 601L0 601Z" fill="#f09c9f"></path>
    <path d="M0 217L120 233L240 309L360 284L480 260L600 236L720 189L840 303L960 208L1080 192L1200 208L1320 260L1440 208L1560 220L1680 211L1800 221L1920 259L1920 601L1800 601L1680 601L1560 601L1440 601L1320 601L1200 601L1080 601L960 601L840 601L720 601L600 601L480 601L360 601L240 601L120 601L0 601Z" fill="#f5a69a"></path>
    <path d="M0 261L120 336L240 315L360 350L480 331L600 260L720 307L840 301L960 333L1080 287L1200 286L1320 348L1440 348L1560 335L1680 267L1800 299L1920 248L1920 601L1800 601L1680 601L1560 601L1440 601L1320 601L1200 601L1080 601L960 601L840 601L720 601L600 601L480 601L360 601L240 601L120 601L0 601Z" fill="#f7b197"></path>
    <path d="M0 400L120 310L240 318L360 377L480 399L600 374L720 348L840 384L960 305L1080 386L1200 391L1320 388L1440 364L1560 400L1680 387L1800 338L1920 305L1920 601L1800 601L1680 601L1560 601L1440 601L1320 601L1200 601L1080 601L960 601L840 601L720 601L600 601L480 601L360 601L240 601L120 601L0 601Z" fill="#f6bd97"></path>
    <path d="M0 374L120 391L240 438L360 442L480 351L600 357L720 403L840 408L960 442L1080 432L1200 414L1320 440L1440 445L1560 362L1680 399L1800 392L1920 393L1920 601L1800 601L1680 601L1560 601L1440 601L1320 601L1200 601L1080 601L960 601L840 601L720 601L600 601L480 601L360 601L240 601L120 601L0 601Z" fill="#f4c99a"></path>
    <path d="M0 481L120 481L240 445L360 405L480 455L600 414L720 442L840 417L960 435L1080 450L1200 457L1320 426L1440 421L1560 486L1680 453L1800 409L1920 475L1920 601L1800 601L1680 601L1560 601L1440 601L1320 601L1200 601L1080 601L960 601L840 601L720 601L600 601L480 601L360 601L240 601L120 601L0 601Z" fill="#f0d5a0"></path>
    <path d="M0 528L120 485L240 535L360 527L480 530L600 508L720 487L840 475L960 507L1080 507L1200 533L1320 499L1440 509L1560 526L1680 525L1800 463L1920 507L1920 601L1800 601L1680 601L1560 601L1440 601L1320 601L1200 601L1080 601L960 601L840 601L720 601L600 601L480 601L360 601L240 601L120 601L0 601Z" fill="#ebe1a9"></path>
    <path d="M0 526L120 580L240 529L360 519L480 545L600 522L720 516L840 575L960 579L1080 532L1200 576L1320 533L1440 552L1560 566L1680 546L1800 530L1920 582L1920 601L1800 601L1680 601L1560 601L1440 601L1320 601L1200 601L1080 601L960 601L840 601L720 601L600 601L480 601L360 601L240 601L120 601L0 601Z" fill="#e5ecb5"></path>
</svg>